<svg version="1" xmlns="http://www.w3.org/2000/svg" width="346.667" height="346.667" viewBox="0 0 260.000000 260.000000"><path d="M79 8.3c-4.7 4.6-10.7 9.4-13.5 10.7-4.7 2.3-6.2 2.5-24.2 2.8l-19.3.4V260h217V22.2l-19.2-.4c-18.8-.3-19.4-.4-25.1-3.1-3.7-1.8-8.6-5.7-13.6-10.8L173.2 0h-42.8L87.5.1 79 8.3zm56.9 15.1c4.5 2.4 6.5 9.1 4 13.9-1.9 3.7-5.2 5.7-9.5 5.7-7.8 0-13-7.3-10.1-14.3 2.7-6.3 9.3-8.5 15.6-5.3zM98.3 54l11.5 11h41.6l11.1-11 11.2-11H217v195H44V43h42.8l11.5 11z"/><path d="M170.5 108.6c-15 9.9-26.7 19.8-41.8 35.3L115.1 158l-6.3-4.4c-3.5-2.4-10.2-6.4-14.9-9l-8.5-4.6-4.4 4.5-4.3 4.4 11.9 11.8c6.5 6.5 16.2 16.8 21.5 23l9.7 11.2 6.7-11.7c8.9-15.5 23.8-37.8 31.9-47.8 3.6-4.5 10.9-12.5 16.2-17.7 9.6-9.6 9.7-9.6 8.4-12.7-.7-1.6-1.5-3-1.9-3-.4 0-5.2 3-10.6 6.6z"/></svg>