<svg width="25" height="30" viewBox="0 0 25 30" fill="none" xmlns="http://www.w3.org/2000/svg">
<path d="M25 2.5V30H0V2.5H3.75C5.2875 2.5 6.47625 1.145 7.5 0H17.5C18.525 1.145 19.7138 2.5 21.25 2.5H25ZM11.25 3.75C11.25 4.44 11.81 5 12.5 5C13.1912 5 13.75 4.44 13.75 3.75C13.75 3.06 13.1912 2.5 12.5 2.5C11.81 2.5 11.25 3.06 11.25 3.75ZM22.5 5H17.5L15 7.5H10.1287L7.5 5H2.5V27.5H22.5V5ZM6.25 17.1613L7.31875 16.1725C8.56875 16.7775 9.3625 17.2375 10.7687 18.24C13.41 15.2413 15.1575 13.72 18.4013 11.7013L18.75 12.5013C16.0737 14.8375 14.1137 17.4375 11.2913 22.5C9.55 20.45 8.38875 19.1425 6.25 17.1613Z" fill="white"/>
</svg>
